<svg width="120" height="120" viewBox="0 0 120 120" fill="none" xmlns="http://www.w3.org/2000/svg">
<rect width="120" height="120" rx="60" fill="#D45AA5"/>
<rect width="120" height="120" rx="60" fill="black" fill-opacity="0.15"/>
<path d="M40 41.875C40 40.8359 40.7494 40 41.6809 40H44.8677C46.4085 40 47.7743 41 48.4116 42.5H77.1974C79.0394 42.5 80.3841 44.4531 79.9009 46.4375L77.0293 58.3359C76.434 60.7891 74.4379 62.5 72.1616 62.5H51.9556L52.3338 64.7266C52.4878 65.6094 53.1812 66.25 53.9867 66.25H74.1787C75.1102 66.25 75.8596 67.0859 75.8596 68.125C75.8596 69.1641 75.1102 70 74.1787 70H53.9867C51.5633 70 49.4832 68.0781 49.035 65.4297L45.421 44.2578C45.3719 43.9609 45.1408 43.75 44.8677 43.75H41.6809C40.7494 43.75 40 42.9141 40 41.875ZM48.9649 76.25C48.9649 75.7575 49.0519 75.2699 49.2208 74.8149C49.3898 74.36 49.6374 73.9466 49.9496 73.5984C50.2617 73.2501 50.6324 72.9739 51.0402 72.7854C51.4481 72.597 51.8853 72.5 52.3268 72.5C52.7682 72.5 53.2054 72.597 53.6133 72.7854C54.0212 72.9739 54.3918 73.2501 54.7039 73.5984C55.0161 73.9466 55.2637 74.36 55.4327 74.8149C55.6016 75.2699 55.6886 75.7575 55.6886 76.25C55.6886 76.7425 55.6016 77.2301 55.4327 77.6851C55.2637 78.14 55.0161 78.5534 54.7039 78.9016C54.3918 79.2499 54.0212 79.5261 53.6133 79.7146C53.2054 79.903 52.7682 80 52.3268 80C51.8853 80 51.4481 79.903 51.0402 79.7146C50.6324 79.5261 50.2617 79.2499 49.9496 78.9016C49.6374 78.5534 49.3898 78.14 49.2208 77.6851C49.0519 77.2301 48.9649 76.7425 48.9649 76.25ZM72.4978 72.5C73.3894 72.5 74.2445 72.8951 74.875 73.5984C75.5055 74.3016 75.8596 75.2554 75.8596 76.25C75.8596 77.2446 75.5055 78.1984 74.875 78.9016C74.2445 79.6049 73.3894 80 72.4978 80C71.6062 80 70.7511 79.6049 70.1206 78.9016C69.4902 78.1984 69.136 77.2446 69.136 76.25C69.136 75.2554 69.4902 74.3016 70.1206 73.5984C70.7511 72.8951 71.6062 72.5 72.4978 72.5Z" fill="url(#paint0_linear_946_3266)"/>
<defs>
<linearGradient id="paint0_linear_946_3266" x1="60" y1="40" x2="60" y2="80" gradientUnits="userSpaceOnUse">
<stop stop-color="#D0BAC8"/>
<stop offset="1" stop-color="#766464"/>
</linearGradient>
</defs>
</svg>
